<mxfile host="app.diagrams.net" modified="2023-06-20T09:49:40.093Z" agent="Mozilla/5.0 (Windows NT 10.0; Win64; x64) AppleWebKit/537.36 (KHTML, like Gecko) Chrome/114.0.0.0 Safari/537.36" etag="haPdrwV0HJ-9J_2n0gsX" version="21.5.0" type="device">
  <diagram id="R2lEEEUBdFMjLlhIrx00" name="Page-1">
    <mxGraphModel dx="910" dy="476" grid="1" gridSize="10" guides="1" tooltips="1" connect="1" arrows="1" fold="1" page="1" pageScale="1" pageWidth="850" pageHeight="1100" math="0" shadow="0" extFonts="Permanent Marker^https://fonts.googleapis.com/css?family=Permanent+Marker">
      <root>
        <mxCell id="0" />
        <mxCell id="1" parent="0" />
        <mxCell id="nVwo6h-rx9fsp1FLTWgT-1" value="user" style="rounded=0;whiteSpace=wrap;html=1;" vertex="1" parent="1">
          <mxGeometry x="540" y="380" width="120" height="60" as="geometry" />
        </mxCell>
        <mxCell id="nVwo6h-rx9fsp1FLTWgT-2" value="postvote" style="rounded=0;whiteSpace=wrap;html=1;" vertex="1" parent="1">
          <mxGeometry x="540" y="90" width="120" height="60" as="geometry" />
        </mxCell>
        <mxCell id="nVwo6h-rx9fsp1FLTWgT-3" value="post" style="rounded=0;whiteSpace=wrap;html=1;" vertex="1" parent="1">
          <mxGeometry x="170" y="90" width="120" height="60" as="geometry" />
        </mxCell>
        <mxCell id="nVwo6h-rx9fsp1FLTWgT-4" value="comment" style="rounded=0;whiteSpace=wrap;html=1;" vertex="1" parent="1">
          <mxGeometry x="170" y="240" width="120" height="60" as="geometry" />
        </mxCell>
        <mxCell id="nVwo6h-rx9fsp1FLTWgT-5" value="commentvote" style="rounded=0;whiteSpace=wrap;html=1;" vertex="1" parent="1">
          <mxGeometry x="170" y="380" width="120" height="60" as="geometry" />
        </mxCell>
        <mxCell id="nVwo6h-rx9fsp1FLTWgT-7" value="" style="endArrow=ERmany;html=1;rounded=0;entryX=0.5;entryY=1;entryDx=0;entryDy=0;exitX=0.5;exitY=0;exitDx=0;exitDy=0;endSize=16;startSize=16;startArrow=none;startFill=0;endFill=0;" edge="1" parent="1" source="nVwo6h-rx9fsp1FLTWgT-1" target="nVwo6h-rx9fsp1FLTWgT-2">
          <mxGeometry width="50" height="50" relative="1" as="geometry">
            <mxPoint x="400" y="310" as="sourcePoint" />
            <mxPoint x="450" y="260" as="targetPoint" />
          </mxGeometry>
        </mxCell>
        <mxCell id="nVwo6h-rx9fsp1FLTWgT-8" value="" style="endArrow=ERmany;html=1;rounded=0;entryX=0;entryY=0.5;entryDx=0;entryDy=0;endSize=16;startSize=16;startArrow=none;startFill=0;endFill=0;" edge="1" parent="1" source="nVwo6h-rx9fsp1FLTWgT-3" target="nVwo6h-rx9fsp1FLTWgT-2">
          <mxGeometry width="50" height="50" relative="1" as="geometry">
            <mxPoint x="400" y="310" as="sourcePoint" />
            <mxPoint x="450" y="260" as="targetPoint" />
          </mxGeometry>
        </mxCell>
        <mxCell id="nVwo6h-rx9fsp1FLTWgT-9" value="" style="endArrow=none;html=1;rounded=0;entryX=0.5;entryY=1;entryDx=0;entryDy=0;exitX=0.5;exitY=0;exitDx=0;exitDy=0;endSize=16;startSize=16;startArrow=ERmany;startFill=0;" edge="1" parent="1" source="nVwo6h-rx9fsp1FLTWgT-4" target="nVwo6h-rx9fsp1FLTWgT-3">
          <mxGeometry width="50" height="50" relative="1" as="geometry">
            <mxPoint x="400" y="310" as="sourcePoint" />
            <mxPoint x="450" y="260" as="targetPoint" />
          </mxGeometry>
        </mxCell>
        <mxCell id="nVwo6h-rx9fsp1FLTWgT-10" value="" style="endArrow=none;html=1;rounded=0;entryX=0.5;entryY=1;entryDx=0;entryDy=0;exitX=0.5;exitY=0;exitDx=0;exitDy=0;startSize=16;endSize=16;endFill=0;startArrow=ERmany;startFill=0;" edge="1" parent="1" source="nVwo6h-rx9fsp1FLTWgT-5" target="nVwo6h-rx9fsp1FLTWgT-4">
          <mxGeometry width="50" height="50" relative="1" as="geometry">
            <mxPoint x="400" y="310" as="sourcePoint" />
            <mxPoint x="450" y="260" as="targetPoint" />
          </mxGeometry>
        </mxCell>
        <mxCell id="nVwo6h-rx9fsp1FLTWgT-11" value="" style="endArrow=ERmany;html=1;rounded=0;entryX=1;entryY=1;entryDx=0;entryDy=0;exitX=0.25;exitY=0;exitDx=0;exitDy=0;startArrow=none;startFill=0;endSize=16;startSize=16;endFill=0;" edge="1" parent="1" source="nVwo6h-rx9fsp1FLTWgT-1" target="nVwo6h-rx9fsp1FLTWgT-3">
          <mxGeometry width="50" height="50" relative="1" as="geometry">
            <mxPoint x="690" y="380" as="sourcePoint" />
            <mxPoint x="450" y="260" as="targetPoint" />
          </mxGeometry>
        </mxCell>
        <mxCell id="nVwo6h-rx9fsp1FLTWgT-12" value="" style="endArrow=none;html=1;rounded=0;exitX=1;exitY=0.5;exitDx=0;exitDy=0;entryX=0;entryY=0;entryDx=0;entryDy=0;endSize=16;startSize=16;endFill=0;startArrow=ERmany;startFill=0;" edge="1" parent="1" source="nVwo6h-rx9fsp1FLTWgT-4" target="nVwo6h-rx9fsp1FLTWgT-1">
          <mxGeometry width="50" height="50" relative="1" as="geometry">
            <mxPoint x="400" y="310" as="sourcePoint" />
            <mxPoint x="450" y="260" as="targetPoint" />
          </mxGeometry>
        </mxCell>
        <mxCell id="nVwo6h-rx9fsp1FLTWgT-13" value="" style="endArrow=none;html=1;rounded=0;exitX=1;exitY=0.5;exitDx=0;exitDy=0;entryX=0;entryY=0.5;entryDx=0;entryDy=0;endSize=16;startSize=16;startArrow=ERmany;startFill=0;" edge="1" parent="1" source="nVwo6h-rx9fsp1FLTWgT-5" target="nVwo6h-rx9fsp1FLTWgT-1">
          <mxGeometry width="50" height="50" relative="1" as="geometry">
            <mxPoint x="400" y="310" as="sourcePoint" />
            <mxPoint x="450" y="260" as="targetPoint" />
          </mxGeometry>
        </mxCell>
        <mxCell id="nVwo6h-rx9fsp1FLTWgT-18" value="&lt;b&gt;Post_id&lt;/b&gt;&lt;br&gt;&lt;i style=&quot;&quot;&gt;user_id&lt;/i&gt;" style="text;html=1;strokeColor=none;fillColor=none;align=center;verticalAlign=middle;whiteSpace=wrap;rounded=0;" vertex="1" parent="1">
          <mxGeometry x="70" y="105" width="60" height="30" as="geometry" />
        </mxCell>
        <mxCell id="nVwo6h-rx9fsp1FLTWgT-19" value="comment_id&lt;br&gt;&lt;span style=&quot;font-weight: normal;&quot;&gt;&lt;i&gt;user_id&lt;br&gt;post_id&lt;/i&gt;&lt;/span&gt;" style="text;html=1;strokeColor=none;fillColor=none;align=center;verticalAlign=middle;whiteSpace=wrap;rounded=0;fontStyle=1" vertex="1" parent="1">
          <mxGeometry x="70" y="255" width="60" height="30" as="geometry" />
        </mxCell>
        <mxCell id="nVwo6h-rx9fsp1FLTWgT-20" value="comment_vote_id&lt;br&gt;&lt;span style=&quot;font-weight: normal;&quot;&gt;&lt;i&gt;user_id&lt;br&gt;comment_id&lt;/i&gt;&lt;/span&gt;" style="text;html=1;strokeColor=none;fillColor=none;align=center;verticalAlign=middle;whiteSpace=wrap;rounded=0;fontStyle=1" vertex="1" parent="1">
          <mxGeometry x="70" y="395" width="60" height="30" as="geometry" />
        </mxCell>
        <mxCell id="nVwo6h-rx9fsp1FLTWgT-21" value="&lt;b&gt;vote_id&lt;/b&gt;&lt;br&gt;&lt;i&gt;user_id&lt;br&gt;&lt;/i&gt;post_id" style="text;html=1;strokeColor=none;fillColor=none;align=center;verticalAlign=middle;whiteSpace=wrap;rounded=0;" vertex="1" parent="1">
          <mxGeometry x="670" y="105" width="60" height="30" as="geometry" />
        </mxCell>
        <mxCell id="nVwo6h-rx9fsp1FLTWgT-22" value="&lt;b&gt;user_id&lt;/b&gt;" style="text;html=1;strokeColor=none;fillColor=none;align=center;verticalAlign=middle;whiteSpace=wrap;rounded=0;" vertex="1" parent="1">
          <mxGeometry x="670" y="395" width="60" height="30" as="geometry" />
        </mxCell>
      </root>
    </mxGraphModel>
  </diagram>
</mxfile>
